name precision_landing03_filtered_grf.mot
datacolumns 37
datarows 14
range 0.646000 0.652500
endheader
time	1_ground_force_vx	1_ground_force_vy	1_ground_force_vz	1_ground_force_px	1_ground_force_py	1_ground_force_pz	1_ground_torque_x	1_ground_torque_y	1_ground_torque_z	2_ground_force_vx	2_ground_force_vy	2_ground_force_vz	2_ground_force_px	2_ground_force_py	2_ground_force_pz	2_ground_torque_x	2_ground_torque_y	2_ground_torque_z	3_ground_force_vx	3_ground_force_vy	3_ground_force_vz	3_ground_force_px	3_ground_force_py	3_ground_force_pz	3_ground_torque_x	3_ground_torque_y	3_ground_torque_z	4_ground_force_vx	4_ground_force_vy	4_ground_force_vz	4_ground_force_px	4_ground_force_py	4_ground_force_pz	4_ground_torque_x	4_ground_torque_y	4_ground_torque_z
            0.646000	            0.000000	           -0.000000	           -0.000000	            0.145274	            0.000000	            0.289941	           -0.000000	           -0.000000	            0.000000	           -0.000000	           -0.000000	           -0.000000	           -0.178967	            0.000000	            0.303654	           -0.000000	            0.000000	           -0.000000	           11.036632	           -1.500613	           -3.988556	            0.380714	            1.275939	            1.882878	           -0.033241	            0.004520	            0.012013	           -2.850779	           -0.597084	            5.443938	           -0.350954	            1.268409	            1.871601	            0.008886	            0.001861	           -0.016969
            0.646500	            0.000000	           -0.000000	           -0.000000	            0.145274	            0.000000	            0.289941	           -0.000000	           -0.000000	            0.000000	           -0.000000	           -0.000000	           -0.000000	           -0.178967	            0.000000	            0.303654	           -0.000000	            0.000000	           -0.000000	           11.064315	           -1.461515	           -3.989173	            0.380708	            1.275937	            1.882887	           -0.033024	            0.004362	            0.011906	           -2.886216	           -0.590213	            5.420071	           -0.350959	            1.268405	            1.871612	            0.008925	            0.001825	           -0.016761
            0.647000	            0.000000	           -0.000000	           -0.000000	            0.145274	            0.000000	            0.289941	           -0.000000	           -0.000000	            0.000000	           -0.000000	           -0.000000	           -0.000000	           -0.178967	            0.000000	            0.303654	           -0.000000	            0.000000	           -0.000000	           11.089828	           -1.423103	           -3.989403	            0.380703	            1.275934	            1.882896	           -0.032801	            0.004209	            0.011800	           -2.920783	           -0.583468	            5.395598	           -0.350964	            1.268402	            1.871622	            0.008971	            0.001792	           -0.016572
            0.647500	           -0.000000	           -0.000000	           -0.000000	            0.145274	            0.000000	            0.289941	           -0.000000	           -0.000000	            0.000000	            0.000000	           -0.000000	           -0.000000	           -0.178967	            0.000000	            0.303654	           -0.000000	            0.000000	           -0.000000	           11.112988	           -1.385493	           -3.989383	            0.380698	            1.275931	            1.882906	           -0.032572	            0.004061	            0.011693	           -2.954375	           -0.576878	            5.370706	           -0.350968	            1.268399	            1.871633	            0.009025	            0.001762	           -0.016406
            0.648000	           -0.000000	            0.000000	           -0.000000	            0.145274	            0.000000	            0.289941	            0.000000	            0.000000	           -0.000000	            0.000000	           -0.000000	           -0.000000	           -0.178967	            0.000000	            0.303654	           -0.000000	            0.000000	           -0.000000	           11.133620	           -1.348684	           -3.989288	            0.380690	            1.275927	            1.882919	           -0.032334	            0.003917	            0.011586	           -2.986971	           -0.570462	            5.345543	           -0.350976	            1.268394	            1.871643	            0.009087	            0.001735	           -0.016262
            0.648500	           -0.000000	            0.000000	            0.000000	            0.145274	            0.000000	            0.289941	            0.000000	            0.000000	           -0.000000	            0.000000	           -0.000000	           -0.000000	           -0.178967	            0.000000	            0.303654	           -0.000000	            0.000000	           -0.000000	           11.151569	           -1.312915	           -3.989207	            0.380682	            1.275923	            1.882932	           -0.032086	            0.003778	            0.011478	           -3.018392	           -0.564235	            5.320351	           -0.350984	            1.268390	            1.871654	            0.009158	            0.001712	           -0.016143
            0.649000	           -0.000000	            0.000000	            0.000000	            0.145274	            0.000000	            0.289941	            0.000000	            0.000000	           -0.000000	            0.000000	           -0.000000	           -0.000000	           -0.178967	            0.000000	            0.303654	           -0.000000	            0.000000	            0.000000	           11.166691	           -1.278309	           -3.989265	            0.380674	            1.275919	            1.882945	           -0.031828	            0.003643	            0.011370	           -3.048546	           -0.558201	            5.295329	           -0.350992	            1.268385	            1.871664	            0.009240	            0.001692	           -0.016050
            0.649500	           -0.000000	            0.000000	            0.000000	            0.145274	            0.000000	            0.289941	            0.000000	            0.000000	           -0.000000	            0.000000	            0.000000	           -0.000000	           -0.178967	            0.000000	            0.303654	            0.000000	           -0.000000	            0.000000	           11.178866	           -1.244993	           -3.989583	            0.380667	            1.275915	            1.882959	           -0.031556	            0.003514	            0.011262	           -3.077351	           -0.552357	            5.270674	           -0.351000	            1.268381	            1.871674	            0.009333	            0.001675	           -0.015985
            0.650000	           -0.000000	            0.000000	            0.000000	            0.145274	            0.000000	            0.289941	            0.000000	            0.000000	           -0.000000	            0.000000	            0.000000	           -0.000000	           -0.178967	            0.000000	            0.303654	            0.000000	           -0.000000	            0.000000	           11.187995	           -1.213095	           -3.990277	            0.380659	            1.275911	            1.882972	           -0.031270	            0.003391	            0.011153	           -3.104726	           -0.546692	            5.246580	           -0.351008	            1.268376	            1.871684	            0.009438	            0.001662	           -0.015949
            0.650500	           -0.000000	            0.000000	            0.000000	            0.145274	            0.000000	            0.289941	            0.000000	            0.000000	           -0.000000	            0.000000	            0.000000	           -0.000000	           -0.178967	            0.000000	            0.303654	            0.000000	           -0.000000	            0.000000	           11.193838	           -1.182692	           -3.991943	            0.380651	            1.275907	            1.882989	           -0.030969	            0.003272	            0.011044	           -3.130671	           -0.541190	            5.223192	           -0.351018	            1.268371	            1.871694	            0.009556	            0.001652	           -0.015944
            0.651000	           -0.000000	            0.000000	            0.000000	            0.145274	            0.000000	            0.289941	            0.000000	            0.000000	           -0.000000	            0.000000	            0.000000	            0.000000	           -0.178967	            0.000000	            0.303654	            0.000000	           -0.000000	            0.000000	           11.196518	           -1.153973	           -3.994186	            0.380642	            1.275903	            1.883005	           -0.030651	            0.003159	            0.010934	           -3.155052	           -0.535826	            5.200731	           -0.351028	            1.268365	            1.871704	            0.009689	            0.001645	           -0.015971
            0.651500	           -0.000000	            0.000000	            0.000000	            0.145274	            0.000000	            0.289941	            0.000000	            0.000000	           -0.000000	            0.000000	            0.000000	            0.000000	           -0.178967	            0.000000	            0.303654	            0.000000	           -0.000000	            0.000000	           11.196022	           -1.127070	           -3.997097	            0.380634	            1.275898	            1.883022	           -0.030315	            0.003052	            0.010823	           -3.177813	           -0.530572	            5.179364	           -0.351038	            1.268360	            1.871713	            0.009836	            0.001642	           -0.016031
            0.652000	           -0.000000	            0.000000	            0.000000	            0.145274	            0.000000	            0.289941	            0.000000	            0.000000	           -0.000000	            0.000000	            0.000000	            0.000000	           -0.178967	            0.000000	            0.303654	            0.000000	           -0.000000	            0.000000	           11.192366	           -1.102119	           -4.000751	            0.380626	            1.275894	            1.883039	           -0.029962	            0.002950	            0.010710	           -3.198904	           -0.525393	            5.159248	           -0.351048	            1.268354	            1.871723	            0.009998	            0.001642	           -0.016125
            0.652500	           -0.000000	            0.000000	            0.000000	            0.145274	            0.000000	            0.289941	            0.000000	            0.000000	           -0.000000	            0.000000	            0.000000	            0.000000	           -0.178967	            0.000000	            0.303654	            0.000000	           -0.000000	            0.000000	           11.185601	           -1.079252	           -4.005214	            0.380618	            1.275889	            1.883055	           -0.029590	            0.002855	            0.010595	           -3.218284	           -0.520255	            5.140522	           -0.351058	            1.268349	            1.871733	            0.010177	            0.001645	           -0.016256
